<mxfile host="app.diagrams.net" modified="2023-11-13T01:03:39.376Z" agent="Mozilla/5.0 (Windows NT 10.0; Win64; x64) AppleWebKit/537.36 (KHTML, like Gecko) Chrome/118.0.0.0 Safari/537.36 OPR/104.0.0.0" version="22.1.0" etag="IM5pMIHsvUfn8pjL_X6e" type="github">
  <diagram name="Page-1" id="AmO15YDaWlay3NDMZqqZ">
    <mxGraphModel>
      <root>
        <mxCell id="0" />
        <mxCell id="1" parent="0" />
      </root>
    </mxGraphModel>
  </diagram>
</mxfile>
